<svg xmlns="http://www.w3.org/2000/svg" viewBox="0 0 576 216"><defs><style>.cls-1{fill:#c242ff;}</style></defs><g id="Guides"><path d="M96.91,160a63.25,63.25,0,0,1-20.69-3.34A37.43,37.43,0,0,1,60,145.93q-6.5-7.37-8.52-19.3H71.18a19.31,19.31,0,0,0,6,9.46,23.25,23.25,0,0,0,9.69,4.72,49,49,0,0,0,11.31,1.32,34.79,34.79,0,0,0,9.69-1.32,16.92,16.92,0,0,0,7.6-4.41,11.3,11.3,0,0,0,3-8.22,11,11,0,0,0-1.63-6.28,13.15,13.15,0,0,0-4.49-4,26,26,0,0,0-6.9-2.55,82.06,82.06,0,0,0-8.37-2.17c-3-.62-5.94-1.29-8.84-2A50.47,50.47,0,0,1,80,108.34a79.76,79.76,0,0,1-9.53-4,30.39,30.39,0,0,1-7.91-5.5,24.15,24.15,0,0,1-5.34-8.06,29.45,29.45,0,0,1-2-11.47,30.8,30.8,0,0,1,2.56-13.1,25.64,25.64,0,0,1,6.82-9.07,33.2,33.2,0,0,1,9.61-5.58,57.22,57.22,0,0,1,11.16-2.94,70.08,70.08,0,0,1,11.08-.93,49.57,49.57,0,0,1,18.68,3.41A32.3,32.3,0,0,1,129,61.69q5.42,7.13,6.2,18.29H116.44a14,14,0,0,0-3.72-8.45A18.33,18.33,0,0,0,105,66.88,33.26,33.26,0,0,0,94.9,65.41a44,44,0,0,0-7.36.62A21,21,0,0,0,81,68.2a13,13,0,0,0-4.65,4.11,11,11,0,0,0-1.79,6.43,10.45,10.45,0,0,0,1.71,6A13.45,13.45,0,0,0,81,89a40.8,40.8,0,0,0,7.2,3.1,57.33,57.33,0,0,0,11.86,3.25,86.62,86.62,0,0,1,12.17,3,64.43,64.43,0,0,1,10.31,3.79,31.88,31.88,0,0,1,8.13,5.43,22.39,22.39,0,0,1,5.35,7.75A28,28,0,0,1,138,126.17q0,9.3-3.34,15.73a28.45,28.45,0,0,1-9.14,10.46,38.76,38.76,0,0,1-13.17,5.81A65.28,65.28,0,0,1,96.91,160Z"/><path d="M158.14,67.58a11.73,11.73,0,0,1-8.68-3.26,11.53,11.53,0,0,1-3.26-8.52,11.33,11.33,0,0,1,3.41-8.45A11.72,11.72,0,0,1,158.14,44a12.21,12.21,0,0,1,8.52,3.25,11,11,0,0,1,3.57,8.53,11.25,11.25,0,0,1-3.41,8.52A12.08,12.08,0,0,1,158.14,67.58Zm-9.46,91.14V77h18.91v81.69Z"/><path d="M179.68,158.72V77H197l1.24,9.3A24.49,24.49,0,0,1,205,79.9a25.5,25.5,0,0,1,7.6-3.18,32.73,32.73,0,0,1,7.51-.93,26.63,26.63,0,0,1,13.25,3.1,21.27,21.27,0,0,1,8.61,9.3,29.2,29.2,0,0,1,7-7,28.81,28.81,0,0,1,8.22-4,31.22,31.22,0,0,1,9.14-1.32q9.45,0,15.19,4a22.63,22.63,0,0,1,8.37,10.84,43.84,43.84,0,0,1,2.63,15.74v52.39h-18.9V112.37c0-2.06-.11-4.23-.31-6.51a20.13,20.13,0,0,0-1.63-6.35,12.12,12.12,0,0,0-3.8-4.81,11.42,11.42,0,0,0-7-1.86,12.94,12.94,0,0,0-7.37,1.94,14.87,14.87,0,0,0-4.65,5.11,22.83,22.83,0,0,0-2.48,7,42,42,0,0,0-.69,7.52v44.33H226.8v-46.5a54.08,54.08,0,0,0-.39-6.28,26.41,26.41,0,0,0-1.55-6.36,10.7,10.7,0,0,0-3.72-4.88,11.8,11.8,0,0,0-7-1.86q-6.51,0-9.84,3.57a18.41,18.41,0,0,0-4.5,8.68,44.33,44.33,0,0,0-1.16,9.76v43.87Z"/><path d="M303.83,188.78V77H321.5l.93,11a28.88,28.88,0,0,1,11.47-9.3,36.07,36.07,0,0,1,14.72-2.95q12.09,0,20,5.58a33.47,33.47,0,0,1,11.77,15,55.82,55.82,0,0,1,3.88,21.39,54.55,54.55,0,0,1-4,21.46,33.35,33.35,0,0,1-12.17,15q-8.13,5.5-20.38,5.5a41.05,41.05,0,0,1-10.46-1.24,29.35,29.35,0,0,1-8.37-3.56,26.66,26.66,0,0,1-6.12-5.27v39.05Zm40.92-46q7.9,0,12.4-3.49a19.68,19.68,0,0,0,6.51-9.14,35.62,35.62,0,0,0,2-12,36,36,0,0,0-2.09-12.4,20.16,20.16,0,0,0-6.74-9.3q-4.65-3.57-12.4-3.57a20.07,20.07,0,0,0-12,3.49,21.58,21.58,0,0,0-7.37,9.22,31,31,0,0,0-2.48,12.4,32.52,32.52,0,0,0,2.33,12.48,19.54,19.54,0,0,0,7.28,9Q337.16,142.75,344.75,142.75Z"/><path d="M393.26,158.72V49.13h18.91V158.72Z"/><path class="cls-1" d="M470.9,87.24v19.6l49.22-32.19V58.74H429.56v16.5h59.62Z"/><path d="M514.76,103.25l-14.7,9.62c5.67,3.47,9,7.94,9,12.17,0,8.72-13.94,18.44-33.94,18.44s-33.94-9.72-33.94-18.44H424.66c0,19.59,22.15,34.93,50.42,34.93S525.5,144.63,525.5,125C525.5,116.73,521.51,109.19,514.76,103.25Z"/></g></svg>